# AST/ASF file generated using VICON BodyLanguage
# -----------------------------------------------
:version 1.10
:name VICON
:units
  mass 1.0
  length 0.45
  angle deg
:documentation
   .ast/.asf automatically generated from VICON data using
   VICON BodyBuilder and BodyLanguage model FoxedUp or BRILLIANT.MOD
:root
   order TX TY TZ RX RY RZ
   axis XYZ
   position 0 0 0  
   orientation 0 0 0 
:bonedata
  begin
     id 1 
     name lhipjoint
     direction 0.716248 -0.617586 0.324924 
     length 2.63557 
     axis 0 0 0  XYZ
  end
  begin
     id 2 
     name lfemur
     direction 0.34202 -0.939693 0  
     length 7.01235  
     axis 0 0 20  XYZ
    dof rx ry rz
    limits (-160.0 20.0)
           (-70.0 70.0)
           (-60.0 70.0)
  end
  begin
     id 3 
     name ltibia
     direction 0.34202 -0.939693 0   
     length 8.14348   
     axis 0 0 20   XYZ
    dof rx
    limits (-10.0 170.0)
  end
  begin
     id 4 
     name lfoot
     direction 0.0982064 -0.26982 0.95789   
     length 1.99077   
     axis -90 7.62852e-016 20   XYZ
    dof rx rz
    limits (-45.0 90.0)
           (-70.0 20.0)
  end
  begin
     id 5 
     name ltoes
     direction 1.53511e-011 -4.21891e-011 1   
     length 0.99735   
     axis -90 7.62852e-016 20   XYZ
    dof rx
    limits (-90.0 20.0)
  end
  begin
     id 6 
     name rhipjoint
     direction -0.687828 -0.642391 0.337975   
     length 2.5338  
     axis 0 0 0  XYZ 
  end
  begin
     id 7 
     name rfemur
     direction -0.34202 -0.939693 0   
     length 6.90199   
     axis 0 0 -20   XYZ
    dof rx ry rz
    limits (-160.0 20.0)
           (-70.0 70.0)
           (-70.0 60.0)
  end
  begin
     id 8 
     name rtibia
     direction -0.34202 -0.939693 0   
     length 8.07725   
     axis 0 0 -20   XYZ
    dof rx
    limits (-10.0 170.0)
 end
 begin
     id 9 
     name rfoot
     direction -0.0912384 -0.250675 0.963762   
     length 2.11621  
     axis -90 -7.62852e-016 -20   XYZ
    dof rx rz
    limits (-45.0 90.0)
           (-20.0 70.0)
  end
  begin
     id 10 
     name rtoes
     direction -1.5359e-011 -4.21894e-011 1   
     length 1.06031   
     axis -90 -7.62852e-016 -20   XYZ
    dof rx
    limits (-90.0 20.0)
  end
  begin
     id 11 
     name lowerback
     direction -0.0403572 0.987953 -0.149396   
     length 2.05637   
     axis 0 0 0   XYZ
    dof rx ry rz
    limits (-20.0 45.0)
           (-30.0 30.0)
           (-30.0 30.0)
  end
  begin
     id 12 
     name upperback
     direction -0.00512151 0.997598 0.0690792   
     length 2.01086   
     axis 0 0 0   XYZ
    dof rx ry rz
    limits (-20.0 45.0)
           (-30.0 30.0)
           (-30.0 30.0)
  end
  begin
     id 13 
     name thorax
     direction 0.0136133 0.989392 0.14463   
     length 2.09035   
     axis 0 0 0   XYZ
    dof rx ry rz
    limits (-20.0 45.0)
           (-30.0 30.0)
           (-30.0 30.0)
  end
  begin
     id 14 
     name lowerneck
     direction 0.0250714 0.992811 0.11704   
     length 1.70806   
     axis 0 0 0   XYZ
    dof rx ry rz
    limits (-20.0 45.0)
           (-30.0 30.0)
           (-30.0 30.0)
  end
  begin
     id 15 
     name upperneck
     direction -0.0519205 0.998394 -0.0226787   
     length 1.6689   
     axis 0 0 0   XYZ
    dof rx ry rz
    limits (-20.0 45.0)
           (-30.0 30.0)
           (-30.0 30.0)
  end
  begin
     id 16
     name head
     direction -0.0201693 0.999547 -0.0223192  
     length 1.83412  
     axis 0 0 0   XYZ
    dof rx ry rz
    limits (-20.0 45.0)
           (-30.0 30.0)
           (-30.0 30.0)
  end
  begin
     id 17 
     name lclavicle
     direction 0.89585 0.444077 -0.0157448  
     length 3.39587  
     axis 0 0 0   XYZ
    dof ry rz
    limits (-20.0 10.0)
           (0.0 20.0)
  end
  begin
     id 18 
     name lhumerus
     direction 1 -4.48956e-011 1.99132e-028   
     length 5.79199   
     axis 180 -30 -90   XYZ
    dof rx ry rz
    limits (-60.0 90.0)
           (-90.0 90.0)
           (-90.0 90.0)
  end
  begin
     id 19
     name lradius
     direction 1 -4.48974e-011 8.72912e-028   
     length 3.49908   
     axis 180 -30 -90   XYZ
    dof rx
    limits (-10.0 170.0)
  end
  begin
     id 20
     name lwrist
     direction 1 -4.48994e-011 4.76442e-027   
     length 1.74954   
     axis -3.27502e-015 90 90   XYZ
    dof ry
    limits (-180.0 0.0)
 end
  begin
     id 21 
     name lhand
     direction 1 -4.48945e-011 9.531e-027   
     length 0.593861   
     axis -6.08098e-015 90 90   XYZ
    dof rx rz
    limits (-90.0 90.0)
           (-45.0 45.0)
  end
  begin
     id 22 
     name lfingers
     direction 1 -4.48945e-011 1.9062e-026   
     length 0.478786   
     axis -1.21619e-014 90 90   XYZ
    dof rx
    limits (0.0 90.0)
  end
  begin
     id 23
     name lthumb
     direction 0.707107 -6.34904e-011 0.707107   
     length 0.687444   
     axis -90 45 -9.86923e-015   XYZ
    dof rx rz
    limits (-45.0 45.0)
           (-45.0 45.0)
  end
  begin
     id 24 
     name rclavicle
     direction -0.940466 0.338394 0.0318182   
     length 3.51226  
     axis 0 0 0   XYZ 
    dof ry rz
    limits (-10.0 20.0)
           (-20.0 0.0)
  end
  begin
     id 25 
     name rhumerus
     direction -1 -4.48976e-011 2.0905e-027  
     length 5.73799   
     axis 180 30 90   XYZ
    dof rx ry rz
    limits (-90.0 60.0)
           (-90.0 90.0)
           (-90.0 90.0)
  end
  begin
     id 26 
     name rradius
     direction -1 -4.48968e-011 -9.39692e-029   
     length 3.57916   
     axis 180 30 90   XYZ
    dof rx
    limits (-10.0 170.0)
  end
  begin
     id 27 
     name rwrist
     direction -1 -4.48959e-011 4.7652e-027   
     length 1.78958   
     axis -3.27502e-015 -90 -90   XYZ
    dof ry
    limits (-180.0 0.0)
  end
  begin
     id 28
     name rhand
     direction -1 -4.49042e-011 9.5267e-027   
     length 0.615577   
     axis -6.08098e-015 -90 -90   XYZ
    dof rx rz
    limits (-90.0 90.0)
           (-45.0 45.0)
  end
  begin
     id 29
     name rfingers
     direction -1 -4.48935e-011 1.90629e-026   
     length 0.496294   
     axis -1.21619e-014 -90 -90   XYZ
    dof rx
    limits (0.0 90.0)
  end
  begin
     id 30
     name rthumb
     direction -0.707107 -6.34977e-011 0.707107   
     length 0.712582   
     axis -90 -45 9.86923e-015   XYZ
    dof rx rz
    limits (-45.0 45.0)
           (-45.0 45.0)
  end
:hierarchy
  begin
    root lhipjoint rhipjoint lowerback
    lhipjoint lfemur
    lfemur ltibia
    ltibia lfoot
    lfoot ltoes
    rhipjoint rfemur
    rfemur rtibia
    rtibia rfoot
    rfoot rtoes
    lowerback upperback
    upperback thorax
    thorax lowerneck lclavicle rclavicle
    lowerneck upperneck
    upperneck head
    lclavicle lhumerus
    lhumerus lradius
    lradius lwrist
    lwrist lhand lthumb
    lhand lfingers
    rclavicle rhumerus
    rhumerus rradius
    rradius rwrist
    rwrist rhand rthumb
    rhand rfingers
  end

#!OML:ASF H:\Terrain\Patient Classification 1\PaulMetrics\March17Take5\PaulMetrics.ASF
:FULLY-SPECIFIED
:DEGREES
2564
root 14.799 17.4456 -14.6977 -4.42552 -60.4358 9.70599
lowerback 2.95821 0.258468 -7.0626
upperback -9.43068 -0.733117 -2.23151
thorax -11.8205 0.0780621 1.63599
lowerneck -3.21737 2.4283 8.19874
upperneck -8.30337 2.40054 -10.3049
head -1.66804 1.1175 -4.46427
rclavicle 2.73329e-014 1.98785e-014
rhumerus 25.276 -22.0586 0.92982
rradius 55.7147
rwrist -3.42163
rhand -31.1731 -20.2498
rfingers 7.12502
rthumb -4.45024 -50.183
lclavicle 2.73329e-014 1.98785e-014
lhumerus 23.7588 28.5082 7.10044
lradius 58.497
lwrist 31.5723
lhand -31.4197 -40.5814
lfingers 7.12502
lthumb -4.68845 -10.6533
rfemur -2.81605 16.4294 11.8882
rtibia 17.6838
rfoot -19.566 -30.1093
rtoes -10.9576
lfemur -9.07037 -6.97547 -17.9556
ltibia 21.5905
lfoot -20.1276 17.6943
ltoes -1.65945
2565
root 14.8004 17.4429 -14.6975 -4.12365 -60.4371 9.36714
lowerback 3.07496 0.246289 -6.83505
upperback -9.45409 -0.743839 -2.25676
thorax -11.9157 0.0534779 1.48366
lowerneck -3.45552 2.46284 8.09477
upperneck -8.06698 2.46423 -10.0556
head -1.56086 1.14126 -4.36397
rclavicle 2.38542e-014 -1.19271e-014
rhumerus 25.2579 -22.3113 0.892789
rradius 54.7879
rwrist -3.67745
rhand -31.211 -20.2935
rfingers 7.12502
rthumb -4.48689 -50.226
lclavicle 2.38542e-014 -1.19271e-014
lhumerus 23.7676 28.7064 6.96035
lradius 57.9247
lwrist 31.8129
lhand -30.9067 -41.6199
lfingers 7.12502
lthumb -4.19308 -11.6815
rfemur -2.67675 16.7171 12.0684
rtibia 17.5514
rfoot -20.5769 -29.7118
rtoes -6.87741
lfemur -9.12909 -7.06073 -17.7514
ltibia 21.7369
lfoot -20.3546 16.9859
ltoes 1.17119
2566
root 14.7989 17.4351 -14.6964 -3.95084 -60.4048 9.14355
lowerback 3.28916 0.235428 -6.697
upperback -9.56356 -0.778284 -2.28065
thorax -12.1721 0.0300229 1.38432
lowerneck -3.48721 2.43267 8.24798
upperneck -7.9307 2.42842 -10.0831
head -1.51654 1.11936 -4.39597
rclavicle 1.45113e-014 1.98785e-014
rhumerus 25.1352 -22.2615 1.01148
rradius 53.9472
rwrist -3.91814
rhand -31.2826 -20.4075
rfingers 7.12502
rthumb -4.55601 -50.3385
lclavicle 1.45113e-014 1.98785e-014
lhumerus 23.8087 28.7121 6.81747
lradius 57.2051
lwrist 31.9338
lhand -30.6614 -42.4509
lfingers 7.12502
lthumb -3.95619 -12.5079
rfemur -2.58343 16.9134 12.1694
rtibia 17.3906
rfoot -21.1052 -29.5475
rtoes -3.91221
lfemur -9.14765 -7.02391 -17.6121
ltibia 21.892
lfoot -20.5066 16.3792
ltoes 1.32147
2567
root 14.7965 17.4283 -14.6951 -3.90956 -60.367 9.0727
lowerback 3.44043 0.215413 -6.68788
upperback -9.65001 -0.821645 -2.23806
thorax -12.3634 0.0167635 1.43045
lowerneck -3.63756 2.40975 8.28954
upperneck -7.6446 2.40075 -10.1975
head -1.40773 1.10222 -4.43276
rclavicle -1.07344e-014 2.82274e-014
rhumerus 25.1493 -22.332 1.09272
rradius 53.1802
rwrist -3.9104
rhand -31.2967 -20.2724
rfingers 7.12502
rthumb -4.56964 -50.2031
lclavicle -1.07344e-014 2.82274e-014
lhumerus 23.6981 28.7804 6.74075
lradius 56.6524
lwrist 31.8711
lhand -30.705 -42.3832
lfingers 7.12502
lthumb -3.99824 -12.4409
rfemur -2.68136 16.5905 12.2334
rtibia 17.3873
rfoot -19.1396 -30.3854
rtoes -10.3337
lfemur -9.15325 -6.75258 -17.5937
ltibia 21.8707
lfoot -20.322 16.3148
ltoes 1.00121
2568
root 14.7936 17.4387 -14.693 -3.89664 -60.4185 9.02971
lowerback 3.49039 0.235605 -6.66932
upperback -9.66056 -0.793417 -2.20184
thorax -12.4082 0.0324593 1.45553
lowerneck -3.68269 2.35943 7.96028
upperneck -7.51463 2.35652 -9.9931
head -1.37487 1.08436 -4.31331
rclavicle -5.14852e-014 -3.57812e-015
rhumerus 25.2345 -22.6668 1.04627
rradius 52.3603
rwrist -3.68281
rhand -31.3157 -20.2134
rfingers 7.12502
rthumb -4.58796 -50.1437
lclavicle -5.14852e-014 -3.57812e-015
lhumerus 23.6701 29.0796 6.90942
lradius 56.2801
lwrist 31.6955
lhand -30.609 -41.9819
lfingers 7.12502
lthumb -3.90554 -12.0379
rfemur -2.71415 16.6843 12.2658
rtibia 17.537
rfoot -19.2332 -30.3408
rtoes -10.5049
lfemur -9.03352 -6.82107 -17.6075
ltibia 21.6903
lfoot -20.2137 16.7799
ltoes 1.85439
